<?xml version="1.0" standalone="no"?><!DOCTYPE svg PUBLIC "-//W3C//DTD SVG 1.1//EN" "http://www.w3.org/Graphics/SVG/1.1/DTD/svg11.dtd"><svg t="1757300887413" class="icon" viewBox="0 0 1024 1024" version="1.1" xmlns="http://www.w3.org/2000/svg" p-id="14742" width="18" height="18" xmlns:xlink="http://www.w3.org/1999/xlink"><path d="M709.095 96.596c-77.435 0-149.224 38.975-196.92 103.072C465.003 135.566 392.697 96.596 315.26 96.596c-139.478 0-252.81 124.097-252.81 276.399 0 90.764 40.509 154.868 73.327 206.145 94.87 149.23 333.838 334.345 344.088 342.04a51.687 51.687 0 0 0 32.306 11.282c11.281 0 22.563-3.59 32.305-11.282 10.26-7.695 248.71-193.329 344.092-342.04 32.824-51.282 73.333-115.38 73.333-206.145 0.004-152.302-113.324-276.399-252.805-276.399z m114.35 481.005c-87.683 123.07-273.316 263.578-282.551 270.243-8.716 6.67-18.976 10.26-28.718 10.26-10.256 0-19.999-3.078-28.715-10.26-9.234-6.66-191.276-148.707-282.555-275.368-29.227-46.152-75.893-103.586-75.893-184.604 0-136.409 75.894-232.3 200.507-232.3 69.228 0 144.612 66.15 186.656 123.584 42.565-57.433 117.431-123.583 186.66-123.583 125.122 0 206.15 95.89 206.15 232.3 0 81.012-51.8 144.089-81.541 189.729z" p-id="14743"></path></svg>